# xmcd
#
# Track frame offsets:
#	150
#	14325
#	30552
#	46002
#	59584
#	75035
#	92377
#	106038
#	120165
#	133527
#	151538
#	168690
#	188214
#	200532
#	214709
#	226107
#	237477
#	254196
#	267384
#	277760
#	291883
#	315839
#
# Disc length: 4217 seconds
#
# Revision: 1
# Processed by: cddbd v1.5.2PL0 Copyright (c) Steve Scherf et al.
# Submitted via: audiograbber 1.83.01
#
DISCID=16107716
DTITLE=Waylon Jennings - Top Tunes Karaoke
DYEAR=1900
DGENRE=Karaoke
TTITLE0=Amanda
TTITLE1=America
TTITLE2=Are You Ready For The Country
TTITLE3=Are You Sure Hank Done It This Way
TTITLE4=Bob Wills Is Still The King
TTITLE5=Can't You See
TTITLE6=Don't You Think This Outlaws Bit's Done Got Out Of Hand
TTITLE7=Drinkin' and Dreamin'
TTITLE8=I'm a Ramblin Man
TTITLE9=I've Always Been Crazy
TTITLE10=Lunchenbach, Texas
TTITLE11=Lucille
TTITLE12=Mama Don't Let Your Babies Grow Up To Be Cowboys
TTITLE13=Never Could Toe the Mark
TTITLE14=Only Daddy That'll Walk The Line
TTITLE15=Rainy Day Woman
TTITLE16=Rose in Paradise
TTITLE17=Shine
TTITLE18=Theme From Dukes of Hazzard
TTITLE19=Wrong
TTITLE20=You Ask Me To
TTITLE21=Data Track
EXTD=
EXTT0=
EXTT1=
EXTT2=
EXTT3=
EXTT4=
EXTT5=
EXTT6=
EXTT7=
EXTT8=
EXTT9=
EXTT10=
EXTT11=
EXTT12=
EXTT13=
EXTT14=
EXTT15=
EXTT16=
EXTT17=
EXTT18=
EXTT19=
EXTT20=
EXTT21=
PLAYORDER=
